<svg width="40" height="40" viewBox="0 0 40 40" fill="none" xmlns="http://www.w3.org/2000/svg">
<path d="M20 38.8889C31.0457 38.8889 40 33.9143 40 27.7778C40 21.6413 31.0457 16.6667 20 16.6667C8.9543 16.6667 0 21.6413 0 27.7778C0 33.9143 8.9543 38.8889 20 38.8889Z" fill="#939598"/>
<path d="M20 36.6667C31.0457 36.6667 40 31.6921 40 25.5556C40 19.4191 31.0457 14.4444 20 14.4444C8.9543 14.4444 0 19.4191 0 25.5556C0 31.6921 8.9543 36.6667 20 36.6667Z" fill="#F1F2F2"/>
<path d="M20 33.58C29.082 33.58 36.4444 29.7938 36.4444 25.1233C36.4444 20.4529 29.082 16.6667 20 16.6667C10.918 16.6667 3.55554 20.4529 3.55554 25.1233C3.55554 29.7938 10.918 33.58 20 33.58Z" fill="white"/>
<path d="M8.88892 31.1111C8.88892 27.7289 9.35225 23.1022 8.93558 15.6944C9.60336 14.1644 15.7645 12.9478 16.2967 11.4811C17.7267 7.54111 14.9534 4.90778 17.7778 2.22222C20.0556 0.0566659 23.3334 -7.7486e-07 24.4445 3.33333C26.6667 1.11111 31.1111 2.22222 31.1111 5.55555C35.5556 4.44444 37.7778 8.88889 34.4445 12.2222C34.4445 13.3333 33.3334 22.2222 33.3334 24.4444C33.3334 26.6667 33.1022 26.4356 27.5467 27.5467C21.9911 28.6578 8.88892 31.1111 8.88892 31.1111Z" fill="#E1E8ED"/>
<path d="M8.88892 30V16.6667C8.88892 16.6667 32.2222 8.88889 32.2222 13.9356V25.5556L8.88892 30Z" fill="#FFAC33"/>
<path d="M8.88892 28.8889V17.7778C8.88892 17.7778 22.6389 13.1022 31.1111 13.3333V24.4444L8.88892 28.8889Z" fill="#FFD983"/>
<path d="M8.88892 23.3333V22.2222L32.2222 17.7778V18.8889L8.88892 23.3333Z" fill="#FFAC33"/>
<path d="M8.88892 15.5556L18.8889 5.55556C21.1111 5.55556 27.7778 6.66667 31.1111 11.1111L8.88892 15.5556Z" fill="#E1E8ED"/>
<path d="M33.3333 11.1111C34.4444 9.99999 34.4444 5.55555 30 6.66666C30 5.55555 27.7778 2.22222 24.4444 4.44444C24.4444 3.33333 18.8889 2.22222 17.7778 4.44444C28.8889 7.77777 33.3333 11.1111 33.3333 11.1111Z" fill="white"/>
<path d="M19.9534 11.62C17.9167 11.3889 15.0456 10.4167 15.6011 7.73111C16.1567 5.04555 18.35 2.30778 19.7678 1.57333C21.0189 0.925553 22.3523 1.4 23.3334 5.18555C23.9811 7.68555 26.3889 10.88 21.4811 11.5744C20.9723 11.5744 19.9534 11.62 19.9534 11.62Z" fill="#DD2E44"/>
<path d="M20.4167 5.60222C20.3304 5.6024 20.2453 5.58239 20.1681 5.54381C20.0909 5.50522 20.0238 5.44913 19.9722 5.38L19.4167 4.63889C19.3283 4.52102 19.2903 4.37285 19.3111 4.22699C19.332 4.08113 19.4099 3.94952 19.5278 3.86111C19.6457 3.77271 19.7938 3.73475 19.9397 3.75559C20.0855 3.77642 20.2171 3.85435 20.3056 3.97222L20.8611 4.71334C20.923 4.79587 20.9607 4.89402 20.97 4.99678C20.9792 5.09953 20.9597 5.20284 20.9136 5.29512C20.8674 5.3874 20.7965 5.46501 20.7087 5.51925C20.621 5.57349 20.5198 5.60222 20.4167 5.60222ZM17.7322 9.49111C17.6473 9.49114 17.5635 9.4717 17.4873 9.4343C17.4111 9.3969 17.3445 9.34253 17.2926 9.27537C17.2406 9.20821 17.2048 9.13003 17.1878 9.04686C17.1708 8.96368 17.173 8.87772 17.1944 8.79556L17.4722 7.73111C17.513 7.59253 17.6061 7.47526 17.7318 7.40417C17.8576 7.33309 18.0061 7.31378 18.1458 7.35035C18.2856 7.38691 18.4056 7.47647 18.4804 7.60003C18.5553 7.72359 18.579 7.87144 18.5467 8.01222L18.2689 9.07667C18.2377 9.1953 18.1682 9.30029 18.0711 9.37526C17.974 9.45023 17.8549 9.49097 17.7322 9.49111ZM22.5922 9.58334C22.4899 9.58374 22.3895 9.55566 22.3022 9.50222L21.4689 8.99334C21.3504 8.91305 21.2674 8.79022 21.2371 8.65034C21.2068 8.51046 21.2315 8.36429 21.3062 8.24217C21.3808 8.12006 21.4996 8.03138 21.6379 7.99456C21.7762 7.95774 21.9234 7.97561 22.0489 8.04445L22.8822 8.55334C22.985 8.61693 23.0642 8.71222 23.108 8.82482C23.1519 8.93743 23.1578 9.06124 23.1251 9.17754C23.0923 9.29385 23.0226 9.39635 22.9265 9.46955C22.8304 9.54275 22.713 9.58269 22.5922 9.58334Z" fill="#F4ABBA"/>
</svg>
