<svg width="42" height="42" viewBox="0 0 42 42" fill="none" xmlns="http://www.w3.org/2000/svg">
<path d="M17.6894 2.47952C18.1062 2.01402 18.6165 1.64164 19.1869 1.38671C19.7574 1.13177 20.3752 1 21 1C21.6248 1 22.2426 1.13177 22.8131 1.38671C23.3835 1.64164 23.8938 2.01402 24.3106 2.47952L25.8659 4.21708C26.3104 4.71367 26.8609 5.10392 27.4767 5.35892C28.0924 5.61393 28.7577 5.72716 29.4231 5.69023L31.7561 5.56135C32.3801 5.52695 33.0043 5.62456 33.588 5.84781C34.1717 6.07106 34.7018 6.41492 35.1436 6.85694C35.5854 7.29897 35.929 7.82921 36.152 8.41305C36.3749 8.99689 36.4722 9.62119 36.4375 10.2452L36.3087 12.576C36.2721 13.2411 36.3855 13.9059 36.6405 14.5213C36.8954 15.1367 37.2855 15.6868 37.7818 16.1311L39.5193 17.6865C39.9851 18.1033 40.3578 18.6137 40.613 19.1844C40.8681 19.7551 41 20.3731 41 20.9983C41 21.6234 40.8681 22.2415 40.613 22.8122C40.3578 23.3828 39.9851 23.8932 39.5193 24.3101L37.7818 25.8654C37.2852 26.3099 36.895 26.8605 36.64 27.4763C36.385 28.092 36.2717 28.7573 36.3087 29.4227L36.4375 31.7558C36.4719 32.3798 36.3743 33.0041 36.1511 33.5878C35.9279 34.1715 35.584 34.7016 35.142 35.1434C34.7 35.5852 34.1698 35.9288 33.5859 36.1518C33.0021 36.3748 32.3778 36.4721 31.7538 36.4374L29.4231 36.3085C28.758 36.2719 28.0932 36.3853 27.4779 36.6403C26.8625 36.8953 26.3124 37.2854 25.8681 37.7817L24.3128 39.5192C23.896 39.9851 23.3856 40.3578 22.8149 40.613C22.2443 40.8681 21.6262 41 21.0011 41C20.376 41 19.7579 40.8681 19.1873 40.613C18.6166 40.3578 18.1062 39.9851 17.6894 39.5192L16.1341 37.7817C15.6896 37.2851 15.1391 36.8948 14.5233 36.6398C13.9076 36.3848 13.2423 36.2716 12.5769 36.3085L10.2439 36.4374C9.61993 36.4718 8.99569 36.3742 8.41197 36.151C7.82826 35.9277 7.29819 35.5838 6.85639 35.1418C6.41459 34.6998 6.07099 34.1695 5.84803 33.5857C5.62507 33.0019 5.52776 32.3776 5.56245 31.7536L5.69132 29.4227C5.72791 28.7576 5.61452 28.0928 5.35954 27.4775C5.10455 26.8621 4.7145 26.3119 4.21822 25.8676L2.48072 24.3123C2.01486 23.8955 1.64219 23.385 1.38703 22.8144C1.13188 22.2437 1 21.6256 1 21.0005C1 20.3754 1.13188 19.7573 1.38703 19.1866C1.64219 18.6159 2.01486 18.1055 2.48072 17.6887L4.21822 16.1333C4.7148 15.6888 5.10503 15.1383 5.36003 14.5225C5.61502 13.9067 5.72825 13.2415 5.69132 12.576L5.56245 10.243C5.52838 9.61914 5.62623 8.99512 5.84961 8.41166C6.073 7.82819 6.4169 7.29839 6.85887 6.85682C7.30084 6.41525 7.83096 6.07184 8.41462 5.849C8.99828 5.62617 9.62236 5.52891 10.2462 5.56357L12.5769 5.69245C13.242 5.72904 13.9068 5.61565 14.5221 5.36065C15.1375 5.10566 15.6876 4.71559 16.1319 4.2193L17.6894 2.47952Z" stroke="black" stroke-width="2"/>
<path d="M15.4453 15.4445H15.4675V15.4667H15.4453V15.4445ZM26.5546 26.5542H26.5768V26.5764H26.5546V26.5542Z" stroke="black" stroke-width="3" stroke-linejoin="round"/>
<path d="M27.6655 14.3336L14.3343 27.6652" stroke="black" stroke-width="2" stroke-linecap="round" stroke-linejoin="round"/>
</svg>
