<svg width="20" height="22" viewBox="0 0 20 22" fill="none" xmlns="http://www.w3.org/2000/svg">
<path d="M11 5.67981H9V9.93689H5V12.0654H9V16.3225H11V12.0654H15V9.93689H11V5.67981ZM10 0.358459C4.48 0.358459 0 5.12639 0 11.0012C0 16.8759 4.48 21.6439 10 21.6439C15.52 21.6439 20 16.8759 20 11.0012C20 5.12639 15.52 0.358459 10 0.358459ZM10 19.5153C5.59 19.5153 2 15.6946 2 11.0012C2 6.30773 5.59 2.487 10 2.487C14.41 2.487 18 6.30773 18 11.0012C18 15.6946 14.41 19.5153 10 19.5153Z" fill="black"/>
</svg>
