<svg width="28" height="28" viewBox="0 0 28 28" fill="none" xmlns="http://www.w3.org/2000/svg">
<path d="M18.6666 11.6667C18.6666 12.9043 18.175 14.0913 17.2998 14.9665C16.4246 15.8417 15.2377 16.3333 14 16.3333C12.7623 16.3333 11.5753 15.8417 10.7001 14.9665C9.82498 14.0913 9.33331 12.9043 9.33331 11.6667C9.33331 10.429 9.82498 9.242 10.7001 8.36683C11.5753 7.49167 12.7623 7 14 7C15.2377 7 16.4246 7.49167 17.2998 8.36683C18.175 9.242 18.6666 10.429 18.6666 11.6667Z" fill="black"/>
<path fill-rule="evenodd" clip-rule="evenodd" d="M13.524 25.6573C7.30156 25.4076 2.33331 20.2836 2.33331 14C2.33331 7.55648 7.55648 2.33331 14 2.33331C20.4435 2.33331 25.6666 7.55648 25.6666 14C25.6666 20.4435 20.4435 25.6666 14 25.6666C13.9467 25.667 13.8934 25.667 13.8401 25.6666C13.7346 25.6666 13.629 25.6631 13.524 25.6573ZM6.51348 21.3616C6.42625 21.1111 6.39656 20.8442 6.42661 20.5807C6.45666 20.3171 6.54568 20.0637 6.68707 19.8393C6.82845 19.6149 7.01857 19.4252 7.2433 19.2843C7.46804 19.1434 7.72162 19.0549 7.98523 19.0254C12.5329 18.522 15.4951 18.5675 20.0206 19.0359C20.2845 19.0634 20.5387 19.1507 20.7638 19.2913C20.9889 19.4319 21.179 19.622 21.3195 19.8471C21.46 20.0723 21.5473 20.3265 21.5747 20.5905C21.6022 20.8544 21.569 21.1212 21.4777 21.3704C23.4173 19.408 24.5035 16.7591 24.5 14C24.5 8.20106 19.7989 3.49998 14 3.49998C8.20106 3.49998 3.49998 8.20106 3.49998 14C3.49998 16.8676 4.64973 19.467 6.51348 21.3616Z" fill="black"/>
</svg>
