<svg width="27" height="26" viewBox="0 0 27 26" fill="none" xmlns="http://www.w3.org/2000/svg">
<g clip-path="url(#clip0_26_447)">
<path d="M7.96735 11.8727V14.0012H18.6101V11.8727H7.96735ZM13.2887 2.29422C7.41393 2.29422 2.646 7.06215 2.646 12.9369C2.646 18.8117 7.41393 23.5796 13.2887 23.5796C19.1635 23.5796 23.9314 18.8117 23.9314 12.9369C23.9314 7.06215 19.1635 2.29422 13.2887 2.29422ZM13.2887 21.4511C8.59527 21.4511 4.77454 17.6304 4.77454 12.9369C4.77454 8.24349 8.59527 4.42276 13.2887 4.42276C17.9821 4.42276 21.8029 8.24349 21.8029 12.9369C21.8029 17.6304 17.9821 21.4511 13.2887 21.4511Z" fill="black"/>
</g>
<defs>
<clipPath id="clip0_26_447">
<rect width="25.5425" height="25.5425" fill="white" transform="translate(0.517334 0.165619)"/>
</clipPath>
</defs>
</svg>
